<svg width="701.3px" height="122px" xmlns="http://www.w3.org/2000/svg" viewBox="-100.65937500000001 14.000009155273439 701.31875 121.99998168945312" style="background: none" preserveAspectRatio="xMidYMid"><defs><filter id="editing-vintage" x="-100%" y="-100%" width="300%" height="300%"><feConvolveMatrix in="SourceGraphic" result="extrude" order="9,9" divisor="1" kernelMatrix="1,0,0,0,0,0,0,0,0,0,1,0,0,0,0,0,0,0,0,0,1,0,0,0,0,0,0,0,0,0,1,0,0,0,0,0,0,0,0,0,1,0,0,0,0,0,0,0,0,0,1,0,0,0,0,0,0,0,0,0,1,0,0,0,0,0,0,0,0,0,1,0,0,0,0,0,0,0,0,0,1"> </feConvolveMatrix><feFlood flood-color="#900" result="flood-extrude"></feFlood><feComposite operator="in" in="flood-extrude" in2="extrude" result="extrude-color"></feComposite><feOffset dx="5" dy="5" in="extrude-color" result="extrude-offset"></feOffset><feColorMatrix in="SourceGraphic" result="stroke" type="matrix" values="0 0 0 0 0 0 0 0 0 0 0 0 0 0 0 0 1 0 0 0 "></feColorMatrix><feColorMatrix in="SourceGraphic" result="fill" type="matrix" values="0 0 0 0 0 0 0 0 0 0 0 0 0 0 0 1 0 0 1 0 "></feColorMatrix><feConvolveMatrix in="stroke" result="inner-shadow" order="5,5" divisor="1" kernelMatrix="1 0 0 0 0 0 1 0 0 0 0 0 1 0 0 0 0 0 1 0 0 0 0 0 1 "></feConvolveMatrix><feOffset dx="1" dy="1" in="inner-shadow" result="offset"></feOffset><feComposite operator="in" in="offset" in2="SourceAlpha" result="comp"></feComposite><feFlood flood-color="#000" result="flood3"></feFlood><feComposite operator="in" in="flood3" in2="comp" result="comp2"></feComposite><feColorMatrix in="comp2" result="comp3" type="matrix" values="1 0 0 0 0 0 1 0 0 0 0 0 1 0 0 0 0 0 0.5 0 "></feColorMatrix><feFlood flood-color="#f00" result="flood1"></feFlood><feComposite operator="in" in="flood1" in2="fill" result="fill2"></feComposite><feFlood flood-color="#fff" result="flood2"></feFlood><feComposite operator="in" in="flood2" in2="stroke" result="stroke2"></feComposite><feMerge result="obj"><feMergeNode in="extrude-offset"></feMergeNode><feMergeNode in="fill2"></feMergeNode><feMergeNode in="comp3"></feMergeNode></feMerge><feConvolveMatrix in="SourceAlpha" result="shadow" order="9,9" divisor="1" kernelMatrix="1,0,0,0,0,0,0,0,0,0,1,0,0,0,0,0,0,0,0,0,1,0,0,0,0,0,0,0,0,0,1,0,0,0,0,0,0,0,0,0,1,0,0,0,0,0,0,0,0,0,1,0,0,0,0,0,0,0,0,0,1,0,0,0,0,0,0,0,0,0,1,0,0,0,0,0,0,0,0,0,1"></feConvolveMatrix><feOffset dx="15" dy="15" in="shadow" result="shadow-offset"></feOffset><feFlood flood-color="#444444" result="flood-shadow"></feFlood><feComposite operator="in" in="flood-shadow" in2="shadow-offset" result="shadow-color"></feComposite><feMerge><feMergeNode in="shadow-color"></feMergeNode><feMergeNode in="obj"></feMergeNode></feMerge></filter></defs><g transform="matrix(1,0,0,1,-9,-9)"><g transform="matrix(1.3,0,0,1.1,-57.7,-9.3)" filter="url(#editing-vintage)"><g transform="translate(-0.1,104.8)"><path d="M 37.6 -48.9 L 37.6 -48.9 L 37.6 -48.9 Q 53.3 -48.9 53.3 -37.8 L 53.3 -37.8 L 53.3 -37.8 Q 53.3 -31.7 49.4 -28.1 L 49.4 -28.1 L 49.4 -28.1 Q 45.5 -24.4 38.8 -24.4 L 38.8 -24.4 L 38.8 -24.4 Q 35.7 -24.4 33.2 -26.2 L 33.2 -26.2 L 33.2 -26.2 Q 32.1 -27 31.3 -28 L 31.3 -28 L 31.3 -28 Q 36 -28 38.5 -30.9 L 38.5 -30.9 L 38.5 -30.9 Q 40.9 -33.7 40.9 -39.3 L 40.9 -39.3 L 40.9 -39.3 Q 40.9 -44.9 35.4 -44.9 L 35.4 -44.9 L 33.9 -44.9 L 33.9 -44.9 Q 33.5 -44.9 33.2 -44.8 L 33.2 -44.8 L 25.8 -6.2 L 11.9 -6.2 L 19.8 -48.1 L 19.8 -48.1 Q 26.7 -48.8 30.6 -48.8 L 30.6 -48.8 L 30.6 -48.8 Q 34.6 -48.9 37.6 -48.9 Z M 69 -9.7 L 69 -9.7 L 69 -9.7 Q 67 -4.9 60.6 -4.9 L 60.6 -4.9 L 60.6 -4.9 Q 57.4 -4.9 55.3 -7.2 L 55.3 -7.2 L 55.3 -7.2 Q 53.6 -9.1 53.6 -11.1 L 53.6 -11.1 L 53.6 -11.1 Q 53.6 -16.3 56 -26.4 L 56 -26.4 L 58.3 -38.8 L 71.3 -40.1 L 67.4 -19.9 L 67.4 -19.9 Q 66.3 -15.2 66.3 -13.5 L 66.3 -13.5 L 66.3 -13.5 Q 66.3 -9.8 69 -9.7 Z M 59.5 -47.7 L 59.5 -47.7 L 59.5 -47.7 Q 59.5 -50.2 61.6 -51.6 L 61.6 -51.6 L 61.6 -51.6 Q 63.6 -52.9 66.7 -52.9 L 66.7 -52.9 L 66.7 -52.9 Q 69.7 -52.9 71.5 -51.6 L 71.5 -51.6 L 71.5 -51.6 Q 73.3 -50.2 73.3 -47.7 L 73.3 -47.7 L 73.3 -47.7 Q 73.3 -45.2 71.3 -44 L 71.3 -44 L 71.3 -44 Q 69.3 -42.7 66.3 -42.7 L 66.3 -42.7 L 66.3 -42.7 Q 63.3 -42.7 61.4 -44 L 61.4 -44 L 61.4 -44 Q 59.5 -45.2 59.5 -47.7 Z M 105.8 -32.8 L 105.8 -32.8 L 105.8 -32.8 Q 105.8 -30.1 103.6 -28.5 L 103.6 -28.5 L 103.6 -28.5 Q 101.3 -26.8 97.7 -26.8 L 97.7 -26.8 L 97.7 -26.8 Q 96.2 -26.8 95.3 -27.3 L 95.3 -27.3 L 95.3 -27.3 Q 96 -28.9 96.2 -31 L 96.2 -31 L 96.2 -31 Q 96.4 -33.1 96.4 -33.7 L 96.4 -33.7 L 96.4 -33.7 Q 96.4 -36.3 94.6 -36.3 L 94.6 -36.3 L 94.6 -36.3 Q 93.3 -36.3 91.8 -34.7 L 91.8 -34.7 L 91.8 -34.7 Q 90.4 -33.1 89.2 -30.6 L 89.2 -30.6 L 89.2 -30.6 Q 86.5 -24.9 86.5 -19.1 L 86.5 -19.1 L 86.5 -19.1 Q 86.5 -15.9 87.7 -14.4 L 87.7 -14.4 L 87.7 -14.4 Q 88.9 -13 91.6 -13 L 91.6 -13 L 91.6 -13 Q 95.3 -13 98.3 -16.1 L 98.3 -16.1 L 98.3 -16.1 Q 99.1 -17 99.5 -18.1 L 99.5 -18.1 L 99.5 -18.1 Q 102 -16.8 102 -13.3 L 102 -13.3 L 102 -13.3 Q 102 -9.7 98 -7.3 L 98 -7.3 L 98 -7.3 Q 93.9 -4.9 87.4 -4.9 L 87.4 -4.9 L 87.4 -4.9 Q 74.4 -4.9 74.4 -18.7 L 74.4 -18.7 L 74.4 -18.7 Q 74.4 -28.7 80.1 -34.5 L 80.1 -34.5 L 80.1 -34.5 Q 85.6 -40.1 95.7 -40.1 L 95.7 -40.1 L 95.7 -40.1 Q 105.8 -40.1 105.8 -32.8 Z M 108.6 -12.6 L 108.6 -12.6 L 108.6 -12.6 Q 108.6 -14.3 109.5 -18.7 L 109.5 -18.7 L 112.9 -36 L 109.1 -36 L 109.3 -37.9 L 109.3 -37.9 Q 117 -40.2 124.4 -45.8 L 124.4 -45.8 L 127.5 -45.8 L 126 -38.8 L 131 -38.8 L 130.4 -36 L 125.5 -36 L 122.2 -18.7 L 122.2 -18.7 Q 121.4 -14.7 121.4 -13.4 L 121.4 -13.4 L 121.4 -13.4 Q 121.4 -10.3 124.1 -9.7 L 124.1 -9.7 L 124.1 -9.7 Q 123.4 -7.5 121.1 -6.2 L 121.1 -6.2 L 121.1 -6.2 Q 118.8 -4.9 115.5 -4.9 L 115.5 -4.9 L 115.5 -4.9 Q 112.3 -4.9 110.4 -7 L 110.4 -7 L 110.4 -7 Q 108.6 -9 108.6 -12.6 Z M 151.2 -8.9 L 151.2 -8.9 L 151.2 -8.9 Q 148.1 -4.9 140.5 -4.9 L 140.5 -4.9 L 140.5 -4.9 Q 136.5 -4.9 133.7 -7.3 L 133.7 -7.3 L 133.7 -7.3 Q 130.8 -9.7 130.8 -13.2 L 130.8 -13.2 L 130.8 -13.2 Q 130.8 -15.1 131 -16.1 L 131 -16.1 L 135.3 -38.8 L 148.3 -40.1 L 143.6 -15.4 L 143.6 -15.4 Q 143.3 -14 143.3 -13.2 L 143.3 -13.2 L 143.3 -13.2 Q 143.3 -9.5 145.6 -9.5 L 145.6 -9.5 L 145.6 -9.5 Q 148.1 -9.5 149.9 -12.9 L 149.9 -12.9 L 149.9 -12.9 Q 150.4 -13.9 150.7 -15.3 L 150.7 -15.3 L 155.2 -38.8 L 167.8 -40.1 L 163.1 -15.2 L 163.1 -15.2 Q 162.9 -14.2 162.9 -13.2 L 162.9 -13.2 L 162.9 -13.2 Q 162.9 -12.1 163.5 -11 L 163.5 -11 L 163.5 -11 Q 164.1 -9.9 165.9 -9.7 L 165.9 -9.7 L 165.9 -9.7 Q 165.5 -8.1 164.2 -7.1 L 164.2 -7.1 L 164.2 -7.1 Q 161.4 -4.9 158.3 -4.9 L 158.3 -4.9 L 158.3 -4.9 Q 155.3 -4.9 153.5 -6 L 153.5 -6 L 153.5 -6 Q 151.7 -7.1 151.2 -8.9 Z M 191.3 -24.2 L 191.3 -24.2 L 191.3 -24.2 Q 193.6 -28.3 193.6 -32.4 L 193.6 -32.4 L 193.6 -32.4 Q 193.6 -35.2 191.6 -35.2 L 191.6 -35.2 L 191.6 -35.2 Q 190.1 -35.2 188.5 -32.6 L 188.5 -32.6 L 188.5 -32.6 Q 186.8 -29.9 186.3 -26.5 L 186.3 -26.5 L 183 -6.2 L 169.8 -4.9 L 176.3 -38.8 L 186.8 -40.1 L 185.7 -33.7 L 185.7 -33.7 Q 188.8 -40.1 195.9 -40.1 L 195.9 -40.1 L 195.9 -40.1 Q 199.6 -40.1 201.6 -38.2 L 201.6 -38.2 L 201.6 -38.2 Q 203.6 -36.3 203.6 -32.3 L 203.6 -32.3 L 203.6 -32.3 Q 203.6 -28.4 201 -25.9 L 201 -25.9 L 201 -25.9 Q 198.4 -23.4 194 -23.4 L 194 -23.4 L 194 -23.4 Q 192.1 -23.4 191.3 -24.2 Z M 230.6 -17 L 230.6 -17 L 230.6 -17 Q 232.2 -15.9 232.2 -13.5 L 232.2 -13.5 L 232.2 -13.5 Q 232.2 -11.1 230.9 -9.6 L 230.9 -9.6 L 230.9 -9.6 Q 229.7 -8.1 227.7 -7 L 227.7 -7 L 227.7 -7 Q 223.6 -4.9 219.2 -4.9 L 219.2 -4.9 L 219.2 -4.9 Q 214.8 -4.9 212.2 -5.9 L 212.2 -5.9 L 212.2 -5.9 Q 209.6 -6.8 207.9 -8.6 L 207.9 -8.6 L 207.9 -8.6 Q 204.5 -12 204.5 -18.2 L 204.5 -18.2 L 204.5 -18.2 Q 204.5 -27.9 209.8 -33.8 L 209.8 -33.8 L 209.8 -33.8 Q 215.4 -40.1 225.2 -40.1 L 225.2 -40.1 L 225.2 -40.1 Q 231.3 -40.1 234.3 -37.6 L 234.3 -37.6 L 234.3 -37.6 Q 236.5 -35.6 236.5 -32.5 L 236.5 -32.5 L 236.5 -32.5 Q 236.5 -21.2 217.1 -21.2 L 217.1 -21.2 L 217.1 -21.2 Q 216.8 -19.6 216.8 -18.2 L 216.8 -18.2 L 216.8 -18.2 Q 216.8 -15.2 218.1 -14.1 L 218.1 -14.1 L 218.1 -14.1 Q 219.4 -13 221.9 -13 L 221.9 -13 L 221.9 -13 Q 224.3 -13 226.9 -14.1 L 226.9 -14.1 L 226.9 -14.1 Q 229.5 -15.2 230.6 -17 Z M 217.5 -24 L 217.5 -24 L 217.5 -24 Q 222 -24 224.7 -26.8 L 224.7 -26.8 L 224.7 -26.8 Q 227.3 -29.5 227.3 -33.8 L 227.3 -33.8 L 227.3 -33.8 Q 227.3 -35.3 226.7 -36.1 L 226.7 -36.1 L 226.7 -36.1 Q 226.2 -36.9 225.1 -36.9 L 225.1 -36.9 L 225.1 -36.9 Q 224 -36.9 223.1 -36.4 L 223.1 -36.4 L 223.1 -36.4 Q 222.2 -36 221.2 -34.6 L 221.2 -34.6 L 221.2 -34.6 Q 218.8 -31.4 217.5 -24 Z M 257.8 -28.7 L 257.8 -28.7 L 257.8 -28.7 Q 258.7 -31 258.7 -33.1 L 258.7 -33.1 L 258.7 -33.1 Q 258.7 -36.9 255.6 -36.9 L 255.6 -36.9 L 255.6 -36.9 Q 254 -36.9 252.7 -35.4 L 252.7 -35.4 L 252.7 -35.4 Q 251.4 -34 251.4 -32.2 L 251.4 -32.2 L 251.4 -32.2 Q 251.4 -30.9 252.4 -29.9 L 252.4 -29.9 L 252.4 -29.9 Q 253.9 -28.5 257.7 -26.2 L 257.7 -26.2 L 257.7 -26.2 Q 261.5 -23.9 262.9 -22 L 262.9 -22 L 262.9 -22 Q 264.3 -20.1 264.3 -17.5 L 264.3 -17.5 L 264.3 -17.5 Q 264.3 -14.9 263.1 -12.5 L 263.1 -12.5 L 263.1 -12.5 Q 261.9 -10.2 259.6 -8.5 L 259.6 -8.5 L 259.6 -8.5 Q 254.8 -4.9 247.1 -4.9 L 247.1 -4.9 L 247.1 -4.9 Q 243 -4.9 239.8 -7.1 L 239.8 -7.1 L 239.8 -7.1 Q 236.6 -9.2 236.6 -11.7 L 236.6 -11.7 L 236.6 -11.7 Q 236.6 -14.2 238.4 -15.7 L 238.4 -15.7 L 238.4 -15.7 Q 240.2 -17.1 242.9 -17.1 L 242.9 -17.1 L 242.9 -17.1 Q 245.6 -17.1 247.3 -16.1 L 247.3 -16.1 L 247.3 -16.1 Q 246.4 -14 246.4 -12.6 L 246.4 -12.6 L 246.4 -12.6 Q 246.4 -8.4 250 -8.4 L 250 -8.4 L 250 -8.4 Q 251.5 -8.4 252.6 -9.3 L 252.6 -9.3 L 252.6 -9.3 Q 253.6 -10.3 253.6 -12 L 253.6 -12 L 253.6 -12 Q 253.6 -15.2 248.1 -18.7 L 248.1 -18.7 L 248.1 -18.7 Q 243.6 -21.6 242.6 -22.8 L 242.6 -22.8 L 242.6 -22.8 Q 240.9 -24.8 240.9 -27.4 L 240.9 -27.4 L 240.9 -27.4 Q 240.9 -29.9 242.1 -32.4 L 242.1 -32.4 L 242.1 -32.4 Q 243.3 -34.8 245.5 -36.5 L 245.5 -36.5 L 245.5 -36.5 Q 250.2 -40.1 258.3 -40.1 L 258.3 -40.1 L 258.3 -40.1 Q 262.5 -40.1 265 -38.5 L 265 -38.5 L 265 -38.5 Q 267.4 -36.8 267.4 -34 L 267.4 -34 L 267.4 -34 Q 267.4 -31.2 265.7 -29.6 L 265.7 -29.6 L 265.7 -29.6 Q 264 -28 261 -28 L 261 -28 L 261 -28 Q 258.8 -28 257.8 -28.7 Z M 308.9 -26.8 L 321.8 -28 L 321.8 -28 Q 317.2 -17.8 317.2 -6.1 L 317.2 -6.1 L 317.2 -6.1 Q 315.5 -4.9 313 -4.9 L 313 -4.9 L 313 -4.9 Q 310.4 -4.9 308.8 -6.1 L 308.8 -6.1 L 308.8 -6.1 Q 307.2 -7.3 306.9 -8.5 L 306.9 -8.5 L 306.9 -8.5 Q 305.3 -6.8 302.7 -5.9 L 302.7 -5.9 L 302.7 -5.9 Q 300.1 -4.9 297.4 -4.9 L 297.4 -4.9 L 297.4 -4.9 Q 294.6 -4.9 292.2 -5.8 L 292.2 -5.8 L 292.2 -5.8 Q 289.8 -6.7 288 -8.7 L 288 -8.7 L 288 -8.7 Q 283.9 -13 283.9 -21.3 L 283.9 -21.3 L 283.9 -21.3 Q 283.9 -34.1 290.7 -41.8 L 290.7 -41.8 L 290.7 -41.8 Q 297.8 -49.7 310.2 -49.7 L 310.2 -49.7 L 310.2 -49.7 Q 318.9 -49.7 321.9 -45.2 L 321.9 -45.2 L 321.9 -45.2 Q 322.9 -43.8 322.9 -42.1 L 322.9 -42.1 L 322.9 -42.1 Q 322.9 -40.4 322.2 -39 L 322.2 -39 L 322.2 -39 Q 321.4 -37.6 320.3 -36.4 L 320.3 -36.4 L 320.3 -36.4 Q 317.5 -33.8 314.1 -33.8 L 314.1 -33.8 L 314.1 -33.8 Q 312.8 -33.8 311.5 -34.3 L 311.5 -34.3 L 311.5 -34.3 Q 311.8 -36.2 311.8 -38.5 L 311.8 -38.5 L 311.8 -38.5 Q 311.8 -40.7 311.6 -41.7 L 311.6 -41.7 L 311.6 -41.7 Q 311.5 -42.7 311.1 -43.6 L 311.1 -43.6 L 311.1 -43.6 Q 310.2 -45.3 308.4 -45.3 L 308.4 -45.3 L 308.4 -45.3 Q 306.6 -45.3 304.6 -43.3 L 304.6 -43.3 L 304.6 -43.3 Q 302.6 -41.4 301 -38.2 L 301 -38.2 L 301 -38.2 Q 297.4 -31 297.4 -22.4 L 297.4 -22.4 L 297.4 -22.4 Q 297.4 -18.4 299 -15.6 L 299 -15.6 L 299 -15.6 Q 300.6 -12.5 303.6 -12.5 L 303.6 -12.5 L 303.6 -12.5 Q 304.6 -12.5 305.5 -13 L 305.5 -13 L 305.5 -13 Q 306.5 -13.6 306.8 -13.9 L 306.8 -13.9 L 308.9 -26.8 Z M 327.7 -8.1 L 327.7 -8.1 L 327.7 -8.1 Q 326.2 -9.8 325.6 -12.4 L 325.6 -12.4 L 325.6 -12.4 Q 324.9 -15 324.9 -19.3 L 324.9 -19.3 L 324.9 -19.3 Q 324.9 -23.6 326.4 -27.5 L 326.4 -27.5 L 326.4 -27.5 Q 327.8 -31.4 330.5 -34.2 L 330.5 -34.2 L 330.5 -34.2 Q 336 -40.1 345.1 -40.1 L 345.1 -40.1 L 345.1 -40.1 Q 348.4 -40.1 350.7 -39 L 350.7 -39 L 361.7 -40.1 L 357 -15.2 L 357 -15.2 Q 356.8 -14.4 356.8 -13 L 356.8 -13 L 356.8 -13 Q 356.8 -11.6 357.6 -10.7 L 357.6 -10.7 L 357.6 -10.7 Q 358.5 -9.8 359.8 -9.7 L 359.8 -9.7 L 359.8 -9.7 Q 359.1 -7.5 356.8 -6.2 L 356.8 -6.2 L 356.8 -6.2 Q 354.5 -4.9 351.8 -4.9 L 351.8 -4.9 L 351.8 -4.9 Q 349.2 -4.9 347.5 -5.9 L 347.5 -5.9 L 347.5 -5.9 Q 345.7 -6.9 345.2 -8.6 L 345.2 -8.6 L 345.2 -8.6 Q 344.2 -7 342 -5.9 L 342 -5.9 L 342 -5.9 Q 339.8 -4.9 336.9 -4.9 L 336.9 -4.9 L 336.9 -4.9 Q 334 -4.9 331.6 -5.7 L 331.6 -5.7 L 331.6 -5.7 Q 329.2 -6.5 327.7 -8.1 Z M 341.2 -34.1 L 341.2 -34.1 L 341.2 -34.1 Q 340.5 -32.9 339.9 -31 L 339.9 -31 L 339.9 -31 Q 339.2 -29 338.2 -23.8 L 338.2 -23.8 L 338.2 -23.8 Q 337.1 -18.6 337.1 -14.9 L 337.1 -14.9 L 337.1 -14.9 Q 337.1 -11.2 337.7 -10.1 L 337.7 -10.1 L 337.7 -10.1 Q 338.3 -9 339.3 -9 L 339.3 -9 L 339.3 -9 Q 341.3 -9 342.8 -11 L 342.8 -11 L 342.8 -11 Q 344.3 -12.9 344.9 -16.4 L 344.9 -16.4 L 348.3 -35.1 L 348.3 -35.1 Q 347 -36.3 345.4 -36.3 L 345.4 -36.3 L 345.4 -36.3 Q 343.8 -36.3 342.9 -35.8 L 342.9 -35.8 L 342.9 -35.8 Q 342 -35.3 341.2 -34.1 Z M 380.4 -9.7 L 380.4 -9.7 L 380.4 -9.7 Q 378.5 -4.9 372.1 -4.9 L 372.1 -4.9 L 372.1 -4.9 Q 368.9 -4.9 366.9 -7.2 L 366.9 -7.2 L 366.9 -7.2 Q 365.2 -9 365.2 -11.1 L 365.2 -11.1 L 365.2 -11.1 Q 365.2 -15.9 367.5 -26.4 L 367.5 -26.4 L 372.1 -51 L 385.1 -52.3 L 378.9 -19.9 L 378.9 -19.9 Q 377.8 -15.2 377.8 -13.5 L 377.8 -13.5 L 377.8 -13.5 Q 377.8 -9.8 380.4 -9.7 Z M 401.2 -9.7 L 401.2 -9.7 L 401.2 -9.7 Q 399.2 -4.9 392.9 -4.9 L 392.9 -4.9 L 392.9 -4.9 Q 389.7 -4.9 387.6 -7.2 L 387.6 -7.2 L 387.6 -7.2 Q 385.9 -9 385.9 -11.1 L 385.9 -11.1 L 385.9 -11.1 Q 385.9 -15.9 388.2 -26.4 L 388.2 -26.4 L 392.9 -51 L 405.9 -52.3 L 399.6 -19.9 L 399.6 -19.9 Q 398.6 -15.2 398.6 -13.5 L 398.6 -13.5 L 398.6 -13.5 Q 398.6 -9.8 401.2 -9.7 Z M 432.5 -17 L 432.5 -17 L 432.5 -17 Q 434.1 -15.9 434.1 -13.5 L 434.1 -13.5 L 434.1 -13.5 Q 434.1 -11.1 432.9 -9.6 L 432.9 -9.6 L 432.9 -9.6 Q 431.7 -8.1 429.7 -7 L 429.7 -7 L 429.7 -7 Q 425.6 -4.9 421.2 -4.9 L 421.2 -4.9 L 421.2 -4.9 Q 416.8 -4.9 414.2 -5.9 L 414.2 -5.9 L 414.2 -5.9 Q 411.6 -6.8 409.9 -8.6 L 409.9 -8.6 L 409.9 -8.6 Q 406.5 -12 406.5 -18.2 L 406.5 -18.2 L 406.5 -18.2 Q 406.5 -27.9 411.7 -33.8 L 411.7 -33.8 L 411.7 -33.8 Q 417.4 -40.1 427.2 -40.1 L 427.2 -40.1 L 427.2 -40.1 Q 433.2 -40.1 436.3 -37.6 L 436.3 -37.6 L 436.3 -37.6 Q 438.5 -35.6 438.5 -32.5 L 438.5 -32.5 L 438.5 -32.5 Q 438.5 -21.2 419 -21.2 L 419 -21.2 L 419 -21.2 Q 418.8 -19.6 418.8 -18.2 L 418.8 -18.2 L 418.8 -18.2 Q 418.8 -15.2 420.1 -14.1 L 420.1 -14.1 L 420.1 -14.1 Q 421.4 -13 423.8 -13 L 423.8 -13 L 423.8 -13 Q 426.3 -13 428.9 -14.1 L 428.9 -14.1 L 428.9 -14.1 Q 431.5 -15.2 432.5 -17 Z M 419.5 -24 L 419.5 -24 L 419.5 -24 Q 424 -24 426.7 -26.8 L 426.7 -26.8 L 426.7 -26.8 Q 429.3 -29.5 429.3 -33.8 L 429.3 -33.8 L 429.3 -33.8 Q 429.3 -35.3 428.7 -36.1 L 428.7 -36.1 L 428.7 -36.1 Q 428.2 -36.9 427.1 -36.9 L 427.1 -36.9 L 427.1 -36.9 Q 426 -36.9 425.1 -36.4 L 425.1 -36.4 L 425.1 -36.4 Q 424.2 -36 423.2 -34.6 L 423.2 -34.6 L 423.2 -34.6 Q 420.8 -31.4 419.5 -24 Z M 460.7 -24.2 L 460.7 -24.2 L 460.7 -24.2 Q 463 -28.3 463 -32.4 L 463 -32.4 L 463 -32.4 Q 463 -35.2 461 -35.2 L 461 -35.2 L 461 -35.2 Q 459.5 -35.2 457.9 -32.6 L 457.9 -32.6 L 457.9 -32.6 Q 456.2 -29.9 455.7 -26.5 L 455.7 -26.5 L 452.4 -6.2 L 439.1 -4.9 L 445.7 -38.8 L 456.2 -40.1 L 455.1 -33.7 L 455.1 -33.7 Q 458.2 -40.1 465.2 -40.1 L 465.2 -40.1 L 465.2 -40.1 Q 469 -40.1 471 -38.2 L 471 -38.2 L 471 -38.2 Q 473 -36.3 473 -32.3 L 473 -32.3 L 473 -32.3 Q 473 -28.4 470.4 -25.9 L 470.4 -25.9 L 470.4 -25.9 Q 467.8 -23.4 463.4 -23.4 L 463.4 -23.4 L 463.4 -23.4 Q 461.5 -23.4 460.7 -24.2 Z M 494.4 -13.4 L 494.4 -13.4 L 494.4 -13.4 Q 491 -10 485 -10 L 485 -10 L 485 -10 Q 477.3 -10 475.7 -15.5 L 475.7 -15.5 L 475.7 -15.5 Q 475.2 -17.2 475.2 -19.1 L 475.2 -19.1 L 475.2 -19.1 Q 475.2 -20.9 475.6 -22.8 L 475.6 -22.8 L 478.6 -38.8 L 491.6 -40.1 L 488.1 -21.5 L 488.1 -21.5 Q 488 -20.7 487.8 -19.8 L 487.8 -19.8 L 487.8 -19.8 Q 487.6 -18.9 487.6 -17.9 L 487.6 -17.9 L 487.6 -17.9 Q 487.6 -17 487.9 -16.4 L 487.9 -16.4 L 487.9 -16.4 Q 488.2 -15.8 488.7 -15.4 L 488.7 -15.4 L 488.7 -15.4 Q 489.4 -14.9 490.8 -14.9 L 490.8 -14.9 L 490.8 -14.9 Q 492.2 -14.9 493.4 -16.6 L 493.4 -16.6 L 493.4 -16.6 Q 494.6 -18.2 495.1 -21.1 L 495.1 -21.1 L 498.7 -38.8 L 511.3 -40.1 L 506.5 -15 L 506.5 -15 Q 504.1 -2.7 499.2 2.2 L 499.2 2.2 L 499.2 2.2 Q 496.7 4.7 493.5 5.7 L 493.5 5.7 L 493.5 5.7 Q 490.3 6.7 486.1 6.7 L 486.1 6.7 L 486.1 6.7 Q 479.4 6.7 475.5 4.6 L 475.5 4.6 L 475.5 4.6 Q 471.7 2.4 471.7 -1.1 L 471.7 -1.1 L 471.7 -1.1 Q 471.7 -3.7 473.7 -5.2 L 473.7 -5.2 L 473.7 -5.2 Q 475.7 -6.7 478.7 -6.7 L 478.7 -6.7 L 478.7 -6.7 Q 481.4 -6.7 483.5 -5.6 L 483.5 -5.6 L 483.5 -5.6 Q 484.7 -4.9 485.3 -4 L 485.3 -4 L 485.3 -4 Q 483.8 -2.7 483.8 -0.6 L 483.8 -0.6 L 483.8 -0.6 Q 483.8 2.3 486.4 2.3 L 486.4 2.3 L 486.4 2.3 Q 490.6 2.3 493 -7.5 L 493 -7.5 L 493 -7.5 Q 493.7 -10.4 494.4 -13.4 Z" fill="#ff0000" stroke="#00ff00" stroke-width="1.8"></path></g></g><g transform="matrix(1.3,0,0,1.1,-57.7,-9.3)"><g transform="translate(-0.1,104.8)"><path d="M 37.6 -48.9 L 37.6 -48.9 L 37.6 -48.9 Q 53.3 -48.9 53.3 -37.8 L 53.3 -37.8 L 53.3 -37.8 Q 53.3 -31.7 49.4 -28.1 L 49.4 -28.1 L 49.4 -28.1 Q 45.5 -24.4 38.8 -24.4 L 38.8 -24.4 L 38.8 -24.4 Q 35.7 -24.4 33.2 -26.2 L 33.2 -26.2 L 33.2 -26.2 Q 32.1 -27 31.3 -28 L 31.3 -28 L 31.3 -28 Q 36 -28 38.5 -30.9 L 38.5 -30.9 L 38.5 -30.9 Q 40.9 -33.7 40.9 -39.3 L 40.9 -39.3 L 40.9 -39.3 Q 40.9 -44.9 35.4 -44.9 L 35.4 -44.9 L 33.9 -44.9 L 33.9 -44.9 Q 33.5 -44.9 33.2 -44.8 L 33.2 -44.8 L 25.8 -6.2 L 11.9 -6.2 L 19.8 -48.1 L 19.8 -48.1 Q 26.7 -48.8 30.6 -48.8 L 30.6 -48.8 L 30.6 -48.8 Q 34.6 -48.9 37.6 -48.9 Z M 69 -9.7 L 69 -9.7 L 69 -9.7 Q 67 -4.9 60.6 -4.9 L 60.6 -4.9 L 60.6 -4.9 Q 57.4 -4.9 55.3 -7.2 L 55.3 -7.2 L 55.3 -7.2 Q 53.6 -9.1 53.6 -11.1 L 53.6 -11.1 L 53.6 -11.1 Q 53.6 -16.3 56 -26.4 L 56 -26.4 L 58.3 -38.8 L 71.3 -40.1 L 67.4 -19.9 L 67.4 -19.9 Q 66.3 -15.2 66.3 -13.5 L 66.3 -13.5 L 66.3 -13.5 Q 66.3 -9.8 69 -9.7 Z M 59.5 -47.7 L 59.5 -47.7 L 59.5 -47.7 Q 59.5 -50.2 61.6 -51.6 L 61.6 -51.6 L 61.6 -51.6 Q 63.6 -52.9 66.7 -52.9 L 66.7 -52.9 L 66.7 -52.9 Q 69.7 -52.9 71.5 -51.6 L 71.5 -51.6 L 71.5 -51.6 Q 73.3 -50.2 73.3 -47.7 L 73.3 -47.7 L 73.3 -47.7 Q 73.3 -45.2 71.3 -44 L 71.3 -44 L 71.3 -44 Q 69.3 -42.7 66.3 -42.7 L 66.3 -42.7 L 66.3 -42.7 Q 63.3 -42.7 61.4 -44 L 61.4 -44 L 61.4 -44 Q 59.5 -45.2 59.5 -47.7 Z M 105.8 -32.8 L 105.8 -32.8 L 105.8 -32.8 Q 105.8 -30.1 103.6 -28.5 L 103.6 -28.5 L 103.6 -28.5 Q 101.3 -26.8 97.7 -26.8 L 97.7 -26.8 L 97.7 -26.8 Q 96.2 -26.8 95.3 -27.3 L 95.3 -27.3 L 95.3 -27.3 Q 96 -28.9 96.2 -31 L 96.2 -31 L 96.2 -31 Q 96.4 -33.1 96.4 -33.7 L 96.4 -33.7 L 96.4 -33.7 Q 96.4 -36.3 94.6 -36.3 L 94.6 -36.3 L 94.6 -36.3 Q 93.3 -36.3 91.8 -34.7 L 91.8 -34.7 L 91.8 -34.7 Q 90.4 -33.1 89.2 -30.6 L 89.2 -30.6 L 89.2 -30.6 Q 86.5 -24.9 86.5 -19.1 L 86.5 -19.1 L 86.5 -19.1 Q 86.5 -15.9 87.7 -14.4 L 87.7 -14.4 L 87.7 -14.4 Q 88.9 -13 91.6 -13 L 91.6 -13 L 91.6 -13 Q 95.3 -13 98.3 -16.1 L 98.3 -16.1 L 98.3 -16.1 Q 99.1 -17 99.5 -18.1 L 99.5 -18.1 L 99.5 -18.1 Q 102 -16.8 102 -13.3 L 102 -13.3 L 102 -13.3 Q 102 -9.7 98 -7.3 L 98 -7.3 L 98 -7.3 Q 93.9 -4.9 87.4 -4.9 L 87.4 -4.9 L 87.4 -4.9 Q 74.4 -4.9 74.4 -18.7 L 74.4 -18.7 L 74.4 -18.7 Q 74.4 -28.7 80.1 -34.5 L 80.1 -34.5 L 80.1 -34.5 Q 85.6 -40.1 95.7 -40.1 L 95.7 -40.1 L 95.7 -40.1 Q 105.8 -40.1 105.8 -32.8 Z M 108.6 -12.6 L 108.6 -12.6 L 108.6 -12.6 Q 108.6 -14.3 109.5 -18.7 L 109.5 -18.7 L 112.9 -36 L 109.1 -36 L 109.3 -37.9 L 109.3 -37.9 Q 117 -40.2 124.4 -45.8 L 124.4 -45.8 L 127.5 -45.8 L 126 -38.8 L 131 -38.8 L 130.4 -36 L 125.5 -36 L 122.2 -18.7 L 122.2 -18.7 Q 121.4 -14.7 121.4 -13.4 L 121.4 -13.4 L 121.4 -13.4 Q 121.4 -10.3 124.1 -9.7 L 124.1 -9.7 L 124.1 -9.7 Q 123.4 -7.5 121.1 -6.2 L 121.1 -6.2 L 121.1 -6.2 Q 118.8 -4.9 115.5 -4.9 L 115.5 -4.9 L 115.5 -4.9 Q 112.3 -4.9 110.4 -7 L 110.4 -7 L 110.4 -7 Q 108.6 -9 108.6 -12.6 Z M 151.2 -8.9 L 151.2 -8.9 L 151.2 -8.9 Q 148.1 -4.9 140.5 -4.9 L 140.5 -4.9 L 140.5 -4.9 Q 136.5 -4.9 133.7 -7.3 L 133.7 -7.3 L 133.7 -7.3 Q 130.8 -9.7 130.8 -13.2 L 130.8 -13.2 L 130.8 -13.2 Q 130.8 -15.1 131 -16.1 L 131 -16.1 L 135.3 -38.8 L 148.3 -40.1 L 143.6 -15.4 L 143.6 -15.4 Q 143.3 -14 143.3 -13.2 L 143.3 -13.2 L 143.3 -13.2 Q 143.3 -9.5 145.6 -9.5 L 145.6 -9.5 L 145.6 -9.5 Q 148.1 -9.5 149.9 -12.9 L 149.9 -12.9 L 149.9 -12.9 Q 150.4 -13.9 150.7 -15.3 L 150.7 -15.3 L 155.2 -38.8 L 167.8 -40.1 L 163.1 -15.2 L 163.1 -15.2 Q 162.9 -14.2 162.9 -13.2 L 162.9 -13.2 L 162.9 -13.2 Q 162.9 -12.1 163.5 -11 L 163.5 -11 L 163.5 -11 Q 164.1 -9.9 165.9 -9.7 L 165.9 -9.7 L 165.9 -9.7 Q 165.5 -8.1 164.2 -7.1 L 164.2 -7.1 L 164.2 -7.1 Q 161.4 -4.9 158.3 -4.9 L 158.3 -4.9 L 158.3 -4.9 Q 155.3 -4.9 153.5 -6 L 153.5 -6 L 153.5 -6 Q 151.7 -7.1 151.2 -8.9 Z M 191.3 -24.2 L 191.3 -24.2 L 191.3 -24.2 Q 193.6 -28.3 193.6 -32.4 L 193.6 -32.4 L 193.6 -32.4 Q 193.6 -35.2 191.6 -35.2 L 191.6 -35.2 L 191.6 -35.2 Q 190.1 -35.2 188.5 -32.6 L 188.5 -32.6 L 188.5 -32.6 Q 186.8 -29.9 186.3 -26.5 L 186.3 -26.5 L 183 -6.2 L 169.8 -4.9 L 176.3 -38.8 L 186.8 -40.1 L 185.7 -33.7 L 185.7 -33.7 Q 188.8 -40.1 195.9 -40.1 L 195.9 -40.1 L 195.9 -40.1 Q 199.6 -40.1 201.6 -38.2 L 201.6 -38.2 L 201.6 -38.2 Q 203.6 -36.3 203.6 -32.3 L 203.6 -32.3 L 203.6 -32.3 Q 203.6 -28.4 201 -25.9 L 201 -25.9 L 201 -25.9 Q 198.4 -23.4 194 -23.4 L 194 -23.4 L 194 -23.4 Q 192.1 -23.4 191.3 -24.2 Z M 230.6 -17 L 230.6 -17 L 230.6 -17 Q 232.2 -15.9 232.2 -13.5 L 232.2 -13.5 L 232.2 -13.5 Q 232.2 -11.1 230.9 -9.6 L 230.9 -9.6 L 230.9 -9.6 Q 229.7 -8.1 227.7 -7 L 227.7 -7 L 227.7 -7 Q 223.6 -4.9 219.2 -4.9 L 219.2 -4.9 L 219.2 -4.9 Q 214.8 -4.9 212.2 -5.9 L 212.2 -5.9 L 212.2 -5.9 Q 209.6 -6.8 207.9 -8.6 L 207.9 -8.6 L 207.9 -8.6 Q 204.5 -12 204.5 -18.2 L 204.5 -18.2 L 204.5 -18.2 Q 204.5 -27.9 209.8 -33.8 L 209.8 -33.8 L 209.8 -33.8 Q 215.4 -40.1 225.2 -40.1 L 225.2 -40.1 L 225.2 -40.1 Q 231.3 -40.1 234.3 -37.6 L 234.3 -37.6 L 234.3 -37.6 Q 236.5 -35.6 236.5 -32.5 L 236.5 -32.5 L 236.5 -32.5 Q 236.5 -21.2 217.1 -21.2 L 217.1 -21.2 L 217.1 -21.2 Q 216.8 -19.6 216.8 -18.2 L 216.8 -18.2 L 216.8 -18.2 Q 216.8 -15.2 218.1 -14.1 L 218.1 -14.1 L 218.1 -14.1 Q 219.4 -13 221.9 -13 L 221.9 -13 L 221.9 -13 Q 224.3 -13 226.9 -14.1 L 226.9 -14.1 L 226.9 -14.1 Q 229.5 -15.2 230.6 -17 Z M 217.5 -24 L 217.5 -24 L 217.5 -24 Q 222 -24 224.7 -26.8 L 224.7 -26.8 L 224.7 -26.8 Q 227.3 -29.5 227.3 -33.8 L 227.3 -33.8 L 227.3 -33.8 Q 227.3 -35.3 226.7 -36.1 L 226.7 -36.1 L 226.7 -36.1 Q 226.2 -36.9 225.1 -36.9 L 225.1 -36.9 L 225.1 -36.9 Q 224 -36.9 223.1 -36.4 L 223.1 -36.4 L 223.1 -36.4 Q 222.2 -36 221.2 -34.6 L 221.2 -34.6 L 221.2 -34.6 Q 218.8 -31.4 217.5 -24 Z M 257.8 -28.7 L 257.8 -28.7 L 257.8 -28.7 Q 258.7 -31 258.7 -33.1 L 258.7 -33.1 L 258.7 -33.1 Q 258.7 -36.9 255.6 -36.9 L 255.6 -36.9 L 255.6 -36.9 Q 254 -36.9 252.7 -35.4 L 252.7 -35.4 L 252.7 -35.4 Q 251.4 -34 251.4 -32.2 L 251.4 -32.2 L 251.4 -32.2 Q 251.4 -30.9 252.4 -29.9 L 252.4 -29.9 L 252.4 -29.9 Q 253.9 -28.5 257.7 -26.2 L 257.7 -26.2 L 257.7 -26.2 Q 261.5 -23.9 262.9 -22 L 262.9 -22 L 262.9 -22 Q 264.3 -20.1 264.3 -17.5 L 264.3 -17.5 L 264.3 -17.5 Q 264.3 -14.9 263.1 -12.5 L 263.1 -12.5 L 263.1 -12.5 Q 261.9 -10.2 259.6 -8.5 L 259.6 -8.5 L 259.6 -8.5 Q 254.8 -4.9 247.1 -4.9 L 247.1 -4.9 L 247.1 -4.9 Q 243 -4.9 239.8 -7.1 L 239.8 -7.1 L 239.8 -7.1 Q 236.6 -9.2 236.6 -11.7 L 236.6 -11.7 L 236.6 -11.7 Q 236.6 -14.2 238.4 -15.7 L 238.4 -15.7 L 238.4 -15.7 Q 240.2 -17.1 242.9 -17.1 L 242.9 -17.1 L 242.9 -17.1 Q 245.6 -17.1 247.3 -16.1 L 247.3 -16.1 L 247.3 -16.1 Q 246.4 -14 246.4 -12.6 L 246.4 -12.6 L 246.4 -12.6 Q 246.4 -8.4 250 -8.4 L 250 -8.4 L 250 -8.4 Q 251.5 -8.4 252.6 -9.3 L 252.6 -9.3 L 252.6 -9.3 Q 253.6 -10.3 253.6 -12 L 253.6 -12 L 253.6 -12 Q 253.6 -15.2 248.1 -18.7 L 248.1 -18.7 L 248.1 -18.7 Q 243.6 -21.6 242.6 -22.8 L 242.6 -22.8 L 242.6 -22.8 Q 240.9 -24.8 240.9 -27.4 L 240.9 -27.4 L 240.9 -27.4 Q 240.9 -29.9 242.1 -32.4 L 242.1 -32.4 L 242.1 -32.4 Q 243.3 -34.8 245.5 -36.5 L 245.5 -36.5 L 245.5 -36.5 Q 250.2 -40.1 258.3 -40.1 L 258.3 -40.1 L 258.3 -40.1 Q 262.5 -40.1 265 -38.5 L 265 -38.5 L 265 -38.5 Q 267.4 -36.8 267.4 -34 L 267.4 -34 L 267.4 -34 Q 267.4 -31.2 265.7 -29.6 L 265.7 -29.6 L 265.7 -29.6 Q 264 -28 261 -28 L 261 -28 L 261 -28 Q 258.8 -28 257.8 -28.7 Z M 308.9 -26.8 L 321.8 -28 L 321.8 -28 Q 317.2 -17.8 317.2 -6.1 L 317.2 -6.1 L 317.2 -6.1 Q 315.5 -4.9 313 -4.9 L 313 -4.9 L 313 -4.9 Q 310.4 -4.9 308.8 -6.1 L 308.8 -6.1 L 308.8 -6.1 Q 307.2 -7.3 306.9 -8.5 L 306.9 -8.5 L 306.9 -8.5 Q 305.3 -6.8 302.7 -5.9 L 302.7 -5.9 L 302.7 -5.9 Q 300.1 -4.9 297.4 -4.9 L 297.4 -4.9 L 297.4 -4.9 Q 294.6 -4.9 292.2 -5.8 L 292.2 -5.8 L 292.2 -5.8 Q 289.8 -6.7 288 -8.7 L 288 -8.7 L 288 -8.7 Q 283.9 -13 283.9 -21.3 L 283.9 -21.3 L 283.9 -21.3 Q 283.9 -34.1 290.7 -41.8 L 290.7 -41.8 L 290.7 -41.8 Q 297.8 -49.7 310.2 -49.7 L 310.2 -49.7 L 310.2 -49.7 Q 318.9 -49.7 321.9 -45.2 L 321.9 -45.2 L 321.9 -45.2 Q 322.9 -43.8 322.9 -42.1 L 322.9 -42.1 L 322.9 -42.1 Q 322.9 -40.4 322.2 -39 L 322.2 -39 L 322.2 -39 Q 321.4 -37.6 320.3 -36.4 L 320.3 -36.4 L 320.3 -36.4 Q 317.5 -33.8 314.1 -33.8 L 314.1 -33.8 L 314.1 -33.8 Q 312.8 -33.8 311.5 -34.3 L 311.5 -34.3 L 311.5 -34.3 Q 311.8 -36.2 311.8 -38.5 L 311.8 -38.5 L 311.8 -38.5 Q 311.8 -40.7 311.6 -41.7 L 311.6 -41.7 L 311.6 -41.7 Q 311.5 -42.7 311.1 -43.6 L 311.1 -43.6 L 311.1 -43.6 Q 310.2 -45.3 308.4 -45.3 L 308.4 -45.3 L 308.4 -45.3 Q 306.6 -45.3 304.6 -43.3 L 304.6 -43.3 L 304.6 -43.3 Q 302.6 -41.4 301 -38.2 L 301 -38.2 L 301 -38.2 Q 297.4 -31 297.4 -22.4 L 297.4 -22.4 L 297.4 -22.4 Q 297.4 -18.4 299 -15.6 L 299 -15.6 L 299 -15.6 Q 300.6 -12.5 303.6 -12.5 L 303.6 -12.5 L 303.6 -12.5 Q 304.6 -12.5 305.5 -13 L 305.5 -13 L 305.5 -13 Q 306.5 -13.6 306.8 -13.9 L 306.8 -13.9 L 308.9 -26.8 Z M 327.7 -8.1 L 327.7 -8.1 L 327.7 -8.1 Q 326.2 -9.8 325.6 -12.4 L 325.6 -12.4 L 325.6 -12.4 Q 324.9 -15 324.9 -19.3 L 324.9 -19.3 L 324.9 -19.3 Q 324.9 -23.6 326.4 -27.5 L 326.4 -27.5 L 326.4 -27.5 Q 327.8 -31.4 330.5 -34.2 L 330.5 -34.2 L 330.5 -34.2 Q 336 -40.1 345.1 -40.1 L 345.1 -40.1 L 345.1 -40.1 Q 348.4 -40.1 350.7 -39 L 350.7 -39 L 361.7 -40.1 L 357 -15.2 L 357 -15.2 Q 356.8 -14.4 356.8 -13 L 356.8 -13 L 356.8 -13 Q 356.8 -11.6 357.6 -10.7 L 357.6 -10.7 L 357.6 -10.7 Q 358.5 -9.8 359.8 -9.7 L 359.8 -9.7 L 359.8 -9.7 Q 359.1 -7.5 356.8 -6.2 L 356.8 -6.2 L 356.8 -6.2 Q 354.5 -4.9 351.8 -4.9 L 351.8 -4.9 L 351.8 -4.9 Q 349.2 -4.9 347.5 -5.9 L 347.5 -5.9 L 347.5 -5.9 Q 345.7 -6.9 345.2 -8.6 L 345.2 -8.6 L 345.2 -8.6 Q 344.2 -7 342 -5.9 L 342 -5.9 L 342 -5.9 Q 339.8 -4.9 336.9 -4.9 L 336.9 -4.9 L 336.9 -4.9 Q 334 -4.9 331.6 -5.7 L 331.6 -5.7 L 331.6 -5.7 Q 329.2 -6.5 327.7 -8.1 Z M 341.2 -34.1 L 341.2 -34.1 L 341.2 -34.1 Q 340.5 -32.9 339.9 -31 L 339.9 -31 L 339.9 -31 Q 339.2 -29 338.2 -23.8 L 338.2 -23.8 L 338.2 -23.8 Q 337.1 -18.6 337.1 -14.9 L 337.1 -14.9 L 337.1 -14.9 Q 337.1 -11.2 337.7 -10.1 L 337.7 -10.1 L 337.7 -10.1 Q 338.3 -9 339.3 -9 L 339.3 -9 L 339.3 -9 Q 341.3 -9 342.8 -11 L 342.8 -11 L 342.8 -11 Q 344.3 -12.9 344.9 -16.4 L 344.9 -16.4 L 348.3 -35.1 L 348.3 -35.1 Q 347 -36.3 345.4 -36.3 L 345.4 -36.3 L 345.4 -36.3 Q 343.8 -36.3 342.9 -35.8 L 342.9 -35.8 L 342.9 -35.8 Q 342 -35.3 341.2 -34.1 Z M 380.4 -9.7 L 380.4 -9.7 L 380.4 -9.7 Q 378.5 -4.9 372.1 -4.9 L 372.1 -4.9 L 372.1 -4.9 Q 368.9 -4.9 366.9 -7.2 L 366.9 -7.2 L 366.9 -7.2 Q 365.2 -9 365.2 -11.1 L 365.2 -11.1 L 365.2 -11.1 Q 365.2 -15.9 367.5 -26.4 L 367.5 -26.4 L 372.1 -51 L 385.1 -52.3 L 378.9 -19.9 L 378.9 -19.9 Q 377.8 -15.2 377.8 -13.5 L 377.8 -13.5 L 377.8 -13.5 Q 377.8 -9.8 380.4 -9.7 Z M 401.2 -9.7 L 401.2 -9.7 L 401.2 -9.7 Q 399.2 -4.9 392.9 -4.9 L 392.9 -4.9 L 392.9 -4.9 Q 389.7 -4.9 387.6 -7.2 L 387.6 -7.2 L 387.6 -7.2 Q 385.9 -9 385.9 -11.1 L 385.9 -11.1 L 385.9 -11.1 Q 385.9 -15.9 388.2 -26.4 L 388.2 -26.4 L 392.9 -51 L 405.9 -52.3 L 399.6 -19.9 L 399.6 -19.9 Q 398.6 -15.2 398.6 -13.5 L 398.6 -13.5 L 398.6 -13.5 Q 398.6 -9.8 401.2 -9.7 Z M 432.5 -17 L 432.5 -17 L 432.5 -17 Q 434.1 -15.9 434.1 -13.5 L 434.1 -13.5 L 434.1 -13.5 Q 434.1 -11.1 432.9 -9.6 L 432.9 -9.6 L 432.9 -9.6 Q 431.7 -8.1 429.7 -7 L 429.7 -7 L 429.7 -7 Q 425.6 -4.9 421.2 -4.9 L 421.2 -4.9 L 421.2 -4.9 Q 416.8 -4.9 414.2 -5.9 L 414.2 -5.9 L 414.2 -5.9 Q 411.6 -6.8 409.9 -8.6 L 409.9 -8.6 L 409.9 -8.6 Q 406.5 -12 406.5 -18.2 L 406.5 -18.2 L 406.5 -18.2 Q 406.5 -27.9 411.7 -33.8 L 411.7 -33.8 L 411.7 -33.8 Q 417.4 -40.1 427.2 -40.1 L 427.2 -40.1 L 427.2 -40.1 Q 433.2 -40.1 436.3 -37.6 L 436.3 -37.6 L 436.3 -37.6 Q 438.5 -35.6 438.5 -32.5 L 438.5 -32.5 L 438.5 -32.5 Q 438.5 -21.2 419 -21.2 L 419 -21.2 L 419 -21.2 Q 418.8 -19.6 418.8 -18.2 L 418.8 -18.2 L 418.8 -18.2 Q 418.8 -15.2 420.1 -14.1 L 420.1 -14.1 L 420.1 -14.1 Q 421.4 -13 423.8 -13 L 423.8 -13 L 423.8 -13 Q 426.3 -13 428.9 -14.1 L 428.9 -14.1 L 428.9 -14.1 Q 431.5 -15.2 432.5 -17 Z M 419.5 -24 L 419.5 -24 L 419.5 -24 Q 424 -24 426.7 -26.8 L 426.7 -26.8 L 426.7 -26.8 Q 429.3 -29.5 429.3 -33.8 L 429.3 -33.8 L 429.3 -33.8 Q 429.3 -35.3 428.7 -36.1 L 428.7 -36.1 L 428.7 -36.1 Q 428.2 -36.9 427.1 -36.9 L 427.1 -36.9 L 427.1 -36.9 Q 426 -36.9 425.1 -36.4 L 425.1 -36.4 L 425.1 -36.4 Q 424.2 -36 423.2 -34.6 L 423.2 -34.6 L 423.2 -34.6 Q 420.8 -31.4 419.5 -24 Z M 460.7 -24.2 L 460.7 -24.2 L 460.7 -24.2 Q 463 -28.3 463 -32.4 L 463 -32.4 L 463 -32.4 Q 463 -35.2 461 -35.2 L 461 -35.2 L 461 -35.2 Q 459.5 -35.2 457.9 -32.6 L 457.9 -32.6 L 457.9 -32.6 Q 456.2 -29.9 455.7 -26.5 L 455.7 -26.5 L 452.4 -6.2 L 439.1 -4.9 L 445.7 -38.8 L 456.2 -40.1 L 455.1 -33.7 L 455.1 -33.7 Q 458.2 -40.1 465.2 -40.1 L 465.2 -40.1 L 465.2 -40.1 Q 469 -40.1 471 -38.2 L 471 -38.2 L 471 -38.2 Q 473 -36.3 473 -32.3 L 473 -32.3 L 473 -32.3 Q 473 -28.4 470.4 -25.9 L 470.4 -25.9 L 470.4 -25.9 Q 467.8 -23.4 463.4 -23.4 L 463.4 -23.4 L 463.4 -23.4 Q 461.5 -23.4 460.7 -24.2 Z M 494.4 -13.4 L 494.4 -13.4 L 494.4 -13.4 Q 491 -10 485 -10 L 485 -10 L 485 -10 Q 477.3 -10 475.7 -15.5 L 475.7 -15.5 L 475.7 -15.5 Q 475.2 -17.2 475.2 -19.1 L 475.2 -19.1 L 475.2 -19.1 Q 475.2 -20.9 475.6 -22.8 L 475.6 -22.8 L 478.6 -38.8 L 491.6 -40.1 L 488.1 -21.5 L 488.1 -21.5 Q 488 -20.7 487.8 -19.8 L 487.8 -19.8 L 487.8 -19.8 Q 487.6 -18.9 487.6 -17.9 L 487.6 -17.9 L 487.6 -17.9 Q 487.6 -17 487.9 -16.4 L 487.9 -16.4 L 487.9 -16.4 Q 488.2 -15.8 488.7 -15.4 L 488.7 -15.4 L 488.7 -15.4 Q 489.4 -14.9 490.8 -14.9 L 490.8 -14.9 L 490.8 -14.9 Q 492.2 -14.9 493.4 -16.6 L 493.4 -16.6 L 493.4 -16.6 Q 494.6 -18.2 495.1 -21.1 L 495.1 -21.1 L 498.7 -38.8 L 511.3 -40.1 L 506.5 -15 L 506.5 -15 Q 504.1 -2.7 499.2 2.2 L 499.2 2.2 L 499.2 2.2 Q 496.7 4.7 493.5 5.7 L 493.5 5.7 L 493.5 5.7 Q 490.3 6.7 486.1 6.7 L 486.1 6.7 L 486.1 6.7 Q 479.4 6.7 475.5 4.6 L 475.5 4.6 L 475.5 4.6 Q 471.7 2.4 471.7 -1.1 L 471.7 -1.1 L 471.7 -1.1 Q 471.7 -3.7 473.7 -5.2 L 473.7 -5.2 L 473.7 -5.2 Q 475.7 -6.7 478.7 -6.7 L 478.7 -6.7 L 478.7 -6.7 Q 481.4 -6.7 483.5 -5.6 L 483.5 -5.6 L 483.5 -5.6 Q 484.7 -4.9 485.3 -4 L 485.3 -4 L 485.3 -4 Q 483.8 -2.7 483.8 -0.6 L 483.8 -0.6 L 483.8 -0.6 Q 483.8 2.3 486.4 2.3 L 486.4 2.3 L 486.4 2.3 Q 490.6 2.3 493 -7.5 L 493 -7.5 L 493 -7.5 Q 493.7 -10.4 494.4 -13.4 Z" fill="none" stroke="#ffffff" stroke-width="2.1"></path></g></g></g><style>text {
  font-size: 64px;
  font-family: Arial Black;
  dominant-baseline: central;
  text-anchor: middle;
}</style></svg>